<?xml version="1.0" encoding="UTF-8"?>
<svg id="Livello_1" data-name="Livello 1" xmlns="http://www.w3.org/2000/svg" viewBox="0 0 845.01 452.25">
  <path d="M806.74,151.89c.23,1.46-.41,2.86-.49,4.16-.12,1.93.3,4.44,0,6.22-.41,2.44-7.8,3.49-9.87,3.22-1.27-.17-5.66-1.76-6.29-1.64-.38.08-.7.66-.7,1.08.1,4.74-.11,9.49-.02,14.22s.36,9.45.46,14.18c.68,34,2.1,68.07,2.2,102.06,0,1.48.8,1.79-.22,3.28-3.45,5.02-11.18,3-16.08,1.48-8.85-2.75-17.65-6.11-26.48-9.02-6.33-2.09-13.83-3.82-19.88-6.3-5.33-2.18-4.51-7.04-4.33-12.1.97-26.81,4.03-53.89,4.9-80.74-.67-3.17-1.66-6.26-2.67-9.33-.75-2.28-2.02-6.58-3.02-8.51-.2-.38-.37-.85-.83-.98-13.69,3.86-27.74,6.69-41.23,11.03-.41.59-.24,9.72-.2,11.34.02.84.45,1.67.47,2.64.17,9.18.1,18.3.52,27.44l30.31,46.03c.74,1.6-1.22,2.51-2.43,2.89-6,1.87-11.24-2.21-16.64-4.25-6.58-2.48-13.91-4.19-20.65-6.41-19.81-6.52-39.47-13.55-59.22-20.21-16.13-5.44-32.37-10.22-48.04-16.74-4.71-1.96-10.05-3.01-14.62-4.9-2.21-.91-2.89-1.8-4.41-3.56-7.75,1.86-15.41,4.07-23.13,6.03-43.96,11.2-88.29,22.23-132.33,33.63l-1.59,1.96-25.05,66.35c.12,13.31.8,26.65,1.32,39.91.99,24.98,1.83,50,2.64,75.01.08,2.39,1.33,5.12-.41,7.43-.92,1.22-8.34,3.51-10,3.45-1.11-.04-3.66-1.66-4.8-2.33-13.99-8.19-27.7-16.96-41.43-25.57-2.07-1.3-8.52-4.28-9.35-6.18-1.2-2.74-.15-4.9-.09-7.41.29-12.13-.29-24.3-.04-36.42.31-15.57,1.17-31.37,1.37-46.99.18-14.49-.5-29.06.44-43.48.05-.78.22-3.62-.69-3.8-.7.08-1.21.6-1.88.78-7.38,1.93-15.24,4.15-22.65,5.75-5.19,1.11-10.46,2.09-15.79,1.96l-.53.36c-.4.6-.25,6.5-.2,7.8.39,10.9.95,21.92,1.34,32.82.09,2.47-.5,8.26.07,10.13.13.44,2.01,3.08,2.52,4.13,3.11,6.41,5.92,12.98,9,19.4,5.54,11.54,12.79,24.01,17.58,35.66.78,1.9,1.14,4.15,1.85,6.04-.1.34-.4.5-.68.68-.83.52-6.55,2.45-7.6,2.61-2.77.44-7.39-2.61-9.85-4.15-6.38-4-11.82-9.61-18.4-13.05-1.47.5-3.12.76-4.59.09-30.16-18.1-61.11-35.16-90.78-53.89-.37-1.17-.32-2.65-1.47-3.4-5.12-2.26-10.72-4.27-15.56-7.07-2.44-1.4-6.3-3.35-4.79-6.73l21.42-27.39c1.74-10.8.73-21.83.96-32.76.65-30.5,1.88-61.47,1.8-91.82-.01-3.8.14-7.57-.45-11.32l-9.99,1.77-28.08,56.67c.39,10.3,1.19,20.65,1.69,30.96.97,20.15,1.55,40.22,3.09,60.35.05.65.44,1.31.43,1.8-.03,2.16-7.24,4.17-9.07,4.22-1.48.04-1.96-.24-3.19-.84-9.06-4.38-19.22-11.15-27.96-16.41-1.28-.77-5.94-2.77-6.27-3.93l-.05-115.75c.19-1.84-5.04-4.08-6.37-4.06-3.11.05-7.87,1.15-11.14,1.69-10.17,1.67-22.88,5.33-32.88,4.83-5.54-.28-6.49-.89-11.34-3.3-6.54-3.25-13.33-6.86-19.65-10.53C2.69,163.01,0,161.37,0,158.72c0-.37,1.06-4.14,1.27-4.46,1.27-1.99,4.33-3.14,6.57-3.64,8.7-1.95,18.85-2.7,27.79-4.16,34.51-5.61,69.06-11.15,103.56-16.7,8.06-1.29,16.68-2.06,24.61-3.79,4.61-1,2.44-2.36-.54-3.64-18.2-7.82-38.16-14.22-56.8-21.3-17.82-6.77-35.37-14.34-53.57-20.09-2.12-.92-1.54-4.33-1.72-6.33.66-2.05,3.99-3.12,5.91-3.43,4.32-.71,9.28-.84,13.62-1.47,105.95-15.38,212.15-27.9,318.17-41.71,63.82-8.31,127.71-17.01,191.7-25.29,8.35-1.08,16.87-3.2,25.34-2.63,2.76.19,6.47.91,9.29,1.36,43.85,7.02,87.96,14.07,131.87,20.77,8.53,1.3,17.19,1.98,25.48,4.26l.36.49c-.8,1.58.3,1.58.73,2.4.61,1.15.4,4.09-.97,4.8l-37.87,6.95c-.35.21-.39.52-.44.89-.62,4.32,2.06,10.74-3.53,12.45-1.1.34-4.41,1.04-5.44.99-5.27-.26-12.87-2.47-18.37-3.4-5.1-.86-10.25-1.63-15.37-2.38-.89-.13-1.93-.72-2.77-.72-.8,0-6.53,1.1-7.43,1.39-.54.17-1.07.31-1.46.76l1.18,91.13c.19.44.43.74.97.66.82-.11,2.34-.81,3.4-1.06,26.99-6.29,53.85-12.48,80.87-18.52,11.78-2.63,17.18-4.62,29.74-2.43,12.68,2.21,27.3,5.83,39.93,8.88,1.62.39,6.55,1.3,7.21,2.55.26.5.21,1.18.48,1.74.34.72.94.57,1.11,1.99.45,3.78-.14,5.34-3.57,6.68-4.23,1.66-9.28,2.5-13.64,3.66-6.97,1.85-14.02,3.4-20.92,5.48ZM668.15,52.58c-9.41.87-20.87,3.85-30.43,5.52-4.02.7-8.35,1.08-12.3,1.9-.61.13-1.11-.06-1.55.67,1.69.76,3.91,2.8,5.44,3.43,2.23.91,10.78-1.03,13.74-1.55,9.17-1.62,18.27-3.72,27.43-5.41.63-.41.63-3.65.23-4.26-.5-.75-1.82-.36-2.57-.29ZM612.25,62.32c-.79.07-3.78.34-3.46,1.45,1.5.74,4.5,4.13,5.9,4.1.69-.01,5.22-.82,5.19-1.43-.63-.73-1.45-1.23-2.25-1.74-1.33-.86-3.91-2.51-5.38-2.38ZM609.67,68.87c.21-.86-.31-.85-.74-1.25-.72-.66-4.23-3.4-4.89-3.55l-13.18,2.18c-1.17.67-1.01,5.94,0,6.14l18.82-3.52ZM669.92,64.97c-3.02.25-6.83,1.53-9.94,2.08-5.9,1.04-11.89,1.71-17.72,3.14-.59.15-1.12.01-1.52.69l30.39,17.96c1.2-.83.23-2.06.2-3.3-.19-6.5.18-13.04.03-19.55l-.43-.91c-.32-.32-.65-.14-1.01-.11ZM575.92,68.9c-.16-.19-4.27.4-4.97.53s-4.77.98-4.76,1.44l10.2,2.88-.47-4.85ZM671.8,112.36v-14.86c-.84-.98-1.89-1.68-2.97-2.36-12.57-7.8-25.77-14.72-38.44-22.38-.96-.32-4.98.7-6.31,1-.63.14-1.27-.41-1.1.67.15.96.52.76,1.02,1.2,1.64,1.44,3.68,2.96,5.43,4.34,11,8.69,22.17,17.18,33.27,25.75,2.43,1.87,4.8,4.19,7.36,5.96.53.36,1.05.79,1.75.7ZM670.02,115.46l-1.11-1.32-51.12-39.42c-2.25.69-4.73.54-6.91.91-.65.11-1.29.55-1.99.67-6.26,1.13-12.51,2.28-18.69,3.72.08,4.91-1.19,10.85-.5,15.71.05.36.09.69.44.9l79.89,18.84ZM578.16,82.63l-40.19,7.96c-.03,1.8-.48,3.87-.58,5.57-.06,1.13,1.04,2.21-.52,3.54-1.07.91-7.02,1.73-8.55,1.46-.94-.17-2.01-1.23-2.77-.36-.41.67-.27,6.49-.23,7.8.75,21.18.32,43.31,1.8,64.31.07,1.05-.41,5.47.66,5.54l47.96-11.5,2.41-84.33ZM496.51,97.71c-.12.71.06,1.02.43,1.57.58.87,3.07,3.14,4,3.98,1.09.99,5.88,5.03,6.91,5.09.67.04,8.7-2.92,9.09-3.31.72-.72.19-1.84.63-2.48.41-.59,2.34-.37,2.49-1.99.1-1.04-.61-1.68-1.48-2.08-1.95-.91-10.04-2.81-12.05-2.53-.85.12-1.58.64-2.34.76-2.53.4-5.12.7-7.67.99ZM587.93,163.82l83.86-18.87.92-1.74-.66-24.67-82.34-19.5-1.77,64.78ZM482.22,100.48c-.55.05-3.03.5-3,1,.82.68,3.38,3.76,4.21,3.76,1.1.01.28-2.01.28-2.43,0-1.44,1.28-2.57-1.49-2.34ZM483.2,121.23c.09-2.43-.11-4.89,0-7.33.12-2.62,1.44-3.68-.92-6.17-1.89-.83-5.99-5.95-7.64-5.91-.84.02-3.05.49-2.35,1.69,3.17,4.93,5.63,10.32,8.61,15.35.25.42,1.69,3.03,2.3,2.36ZM479.56,189.02c1.49-6.01.69-12.22.97-18.33.43-9.26,1.38-18.67,1.79-27.94.23-5.33.46-10.62.43-15.97l-13.59-23.69-192.09,34.09c-6.11,18.67-10.99,37.77-16.6,56.61-.2,11.56.91,23.09,1.31,34.57.12,3.32-.1,6.67,0,9.99l217.79-49.34ZM494.3,104.15c-.41,1.63,0,6.76,0,8.87,0,1,2.74,0,3.35-.2,1.09-.35,3.14-1.13,4.08-1.69.35-.21.73.11.58-.77-1.71-2.58-4.75-4.64-7.11-6.67-.25-.4-.87.34-.9.46ZM517.37,110.58c-.44-.48-4.93,1.22-4.91,2.44,0,.53,3.94,4.59,4.25,4.66,1.6.36.67-1.81.65-2.43-.04-1.55.05-3.12,0-4.67ZM517.81,135.43v-10.87l-10.51-9.94-9.45,3.72,18.39,16.66,1.57.42ZM516.04,138.09l-20.82-18.45c-.47-.3-.87-.22-1.15.25-.53.88-.14,5.02-.2,6.45-.07,1.55-1.3,4.35.19,5.57l21.99,6.18ZM518.65,180.19l-.61-38.56c-.45-.87-3.56-1.63-4.66-1.99-3.2-1.06-6.53-1.73-9.77-2.66-1.27-.37-9.83-3.33-10.2-2.89-.55,2.73-.28,5.46-.44,8.22-.6,10.44-1.44,21.05-1.79,31.49-.14,4.21.11,8.45,0,12.65l27.46-6.26ZM260.88,181.13l12.37-42.44-.6-1.03c-3.23.87-6.57,1.4-9.88,2.09-1.35.28-2.92-.35-3.58,1.3l.81,39.42.89.66ZM244.02,170.92c-.08-3.32.11-6.67,0-9.99-.03-.84-.45-1.67-.47-2.64-.1-4.21.47-9.31.04-13.35-.07-.69-.11-1.09-.68-1.58l-24.19,4.26c4.02,3.82,7.96,7.72,11.97,11.55.54.51,1.25.8,1.79,1.31,2.7,2.56,7.29,8.24,9.95,10.01.55.37.86.55,1.57.42ZM244.91,200.2l-.43-16.65-.52-1.7c-7.84-8.23-16.04-15.89-24.36-23.56-3.32-3.06-6.47-6.25-10.06-9.03-.62-.19-4.34.24-5.22.39-2.47.42-16.03,11.78-19.11,14.17-1.56,1.21-6.85,4.54-7.51,5.8-.75,1.43-.97,2.99.77,3.62l66.43,26.97ZM177.46,154.73v9.98c1.43-.11,3.2-1.57,4.4-2.47,3.9-2.92,7.96-6.03,11.71-9.15.48-.4,1.26-.68,1.2-1.47l-16.58,2.5-.73.61ZM151.28,158.94l-8.41,2.01-16.98,16.74c-.84,1.26.06,2.44.11,3.65.28,6.85.49,13.6.89,20.41.11,1.99-.09,4.01,0,5.99.77.15.9-.19,1.24-.76,1.9-3.26,3.46-7.36,5.19-10.79,5.89-11.68,11.81-23.42,17.63-35.17l.35-2.09ZM773.3,160.38c-4.66.61-10.64,2.93-15.41,4.11-1.08.27-5.16.47-4.89,1.76.12.58,8.27,6.23,9.56,6.89,3.71-.55,7.69-1.37,11.3-2.44s4.73-2.13,7.55-3.54c.7-.35,1.89-.09,2.15-.95.63-1.24-.97-4.07-2.03-4.52-1.63-.7-6.5-1.54-8.24-1.31ZM137.96,161.16l-14.15,2.71.6,9.28,1.28.37c3.4-3.9,8.34-7.13,11.6-11.03.37-.45.85-.57.66-1.33ZM111.86,173.22c.18-.26,1.45-.38,1.54-1.16-.79-2.07.55-4.8-1.37-6.32-.71.37-1.92.16-2.49.51-1.08.66.1,8.78-.63,10.46-2.92,2-6.61,2.13-10,2.65-.55.4,1.88,4.4,3.3,3.55,2.47-1.34,6.72-2.4,8.85-4.04,1.62-1.24.12-4.69.79-5.64ZM755.22,175.8c.16-.72-.23-.9-.67-1.33-2.34-2.26-5.8-4.14-8.21-6.43-.64-.37-2.06-.45-2.46.19-.27.42-.74,4.45-.56,5.05.34,1.12,4.08,3.12,4.79,4.53l7.11-2.01ZM730.37,181.13c-.42-3.23,2.91-11.73-3.12-8.65-.34.21-.39.42-.37.8.04.73,2.05,5.63,2.49,6.87.26.71-.25,1.2.99.98ZM780.96,187.34l-.43-10.88-.67-1.09c-1.45,1.16-9.12,2.13-9.79,3.07-.28.4-.27.86-.15,1.31.37.11.75.22,1.05.48,2.13,1.79,5.87,5.35,8.06,6.61.63.36,1.18.61,1.94.5ZM249.34,375.02l-2.77-91.52c-.42-.97-2.37-1.74-3.43-2.33-9.99-5.55-21.2-9.76-31.23-15.36-3.34-2.32-2.03-9.67-.63-12.92.73-1.7,3.44-3.14,5.1-3.77s4-1.31,5.78-1.76c2.97-.77,22.74-4.43,23.43-5.41l-.77-37.88c-.18-.63-.85-.99-1.38-1.28-3.7-2-9.28-4.04-13.32-5.76-8.77-3.73-17.66-7.2-26.48-10.79s-17.15-7.32-25.96-10.42l-.7,1.53c-.55,48.79-.1,97.64-1.76,146.43-.09,2.63,0,5.29.08,7.92,5.44,5.05,12.51,8.03,18.86,11.75,17.39,10.17,35.31,21.5,53.09,30.77.66.34,1.3.87,2.07.81ZM781.4,207.3c.17-4.03-.18-8.03-.67-11.98l-18.4-14.46c-.44-.14-3.7.71-4.46.91-.65.17-4,.93-3.97,1.35,4.67,4.19,9.1,8.66,13.74,12.88,3.27,2.97,6.92,6.55,10.21,9.32.55.46,3.02,2.54,3.56,1.99ZM778.74,210.41c.22-.98-.54-.99-1.02-1.42-.87-.78-1.66-1.59-2.52-2.36l-24.42-22.17c-1.96-.99-5.82,1.34-7.95,1.59.23,4.45-1.12,9.54-.49,13.95.05.36.1.68.44.89l35.95,9.53ZM111.18,185.17c-.53.08-5.11,2.62-5.42,3.04-.45.6.69,3.23,2.25,2.24.99-.63,4.46-3.48,4.21-4.66-.07-.32-.64-.68-1.05-.62ZM674.46,251.23c-.09-6.28.12-12.59.02-18.88-.15-9.51-.73-19.28-.93-28.8-.11-5.03.43-10.66.04-15.57-.05-.65-.01-1.21-.74-1.5-3.5.67-7.02,1.45-10.48,2.31-18.3,4.56-36.53,9.59-54.72,14.5-6.08,1.64-13.35,2.81-19.2,4.76-.64.21-1.25.42-1.64,1.02-.4,4.27-.9,8.52-.61,12.83l88.26,29.33ZM97.14,200.21l3.56-2.43,3.12-3.56c-1.68-3.41-3.5-4.53-6.68-1.77v7.76ZM112.23,191.33c-.4-.47-2.81,1.63-2.69,2.87.06.61,2.57,3.95,3.13,3.34l-.44-6.21ZM113.11,216.18v-9.54c0-.66-5.21-7.89-6.08-8.99-.72-.91-1.15-.78-2.15-.13-.6.39-6.94,6.73-7.32,7.32-.82,1.27-.79,3.93.75,4.62l14.81,6.71ZM741.91,203.75l-3.35,70.13,43.91,14.15c1.18-.62.27-1.69.24-2.84-.44-20.95-.44-41.7-1.31-62.58-.12-2.88.26-5.82-.19-8.69-10.62-2.64-21.06-6.04-31.66-8.72-1.12-.28-7.22-1.89-7.64-1.46ZM97.14,212.41v74.1c0,.79,1.85,1.93,2.53,2.36,5.31,3.33,11.12,5.95,16.41,9.33l1.03.08c-.05-.81.08-1.65.02-2.46-1.62-23.87-1.61-48.04-3.58-71.85-.11-1.35.43-4.3-.74-5.13-1.4-1-5.56-2.76-7.38-3.61-2.38-1.1-4.96-2.33-7.39-3.27-.44-.17-.84.24-.9.47ZM574.61,211.74l-19.96,5.1c.42.49.87.9,1.45,1.2,1.48.77,5.75,2.2,7.5,2.7,3.1.89,6.37,1.07,9.47,1.94.39-.04.89-.66,1.01-1.05.08-.29.53-2.44.53-2.57v-7.32ZM704.63,268.09c.13-.64-.22-.98-.52-1.47-4.37-7.06-9.43-14.1-14.05-21.01-1.83-2.74-3.69-6.49-5.64-9-.41-.53-.76-1.06-1.53-.91.02,1,.41,1.82.46,2.86.22,3.99-.64,9.67-.01,13.32.16.91,1.04,1.44,1.24,2.31.3,1.31-.34,2.15-.26,2.96.21,2.06,4.77,3.69,6.39,4.66l13.92,6.27ZM386.46,259.66c-.64-.06-1.25.01-1.88.11-3.29.51-13.69,3.07-16.56,4.3-.84.36-5.22,4.05-5.44,4.77-.27.89-.22,5.49-.06,6.56.19,1.25,1.19,1.72,1.34,3.1.27,2.44-.13,5.46-.03,8.02.25,6.14.7,12.46.91,18.61.11,3.18-.13,6.39-.02,9.56l1.22-1.21,20.52-53.8ZM335.88,285.39l-1.01-1.42-11.85-5.23,4,5.54c.7.51,1.55,1.89,2.22,2.23,1.48.76,4.77-1.47,6.65-1.12ZM318.13,290.27c1.5-.2,3.38-.41,4.44-1.58.06-.28-2.68-4.41-3.11-4.85s-.6-.82-1.33-.67v7.1ZM346.53,291.16c-.57-.62-8.68,2.49-10.18,2.69-.73,1.07,2.68,4.93,3.53,5.96,1.73,2.1,4.13,4.97,5.98,6.89.46.48.8,1.03,1.56.88l-.89-16.42ZM317.68,299.37v6.43c.9.07,1.59-.58,2.23-1.1,1.81-1.45,5.1-4.85,6.65-6.67.35-.41.99-.68.89-1.33l-9.01,2.08-.75.58ZM347.86,330.65l-.78-12.75c-4.96-6.53-10.38-12.65-15.86-18.74l-13.31,12.86v4.01s28.49,14.54,28.49,14.54l1.46.09ZM163.26,326.21l.44-22.19c-.82.46-1.58,1.3-2.21,2-2.29,2.57-4.98,6.09-7.1,8.87-.52.69-3.13,4.02-3.13,4.43,0,.9,2.59,2.71,3.42,3.26,1.15.77,7.76,4.53,8.58,3.62ZM317.92,320c-.67.4-.62.87-.7,1.53-.79,6.88.15,16.31.04,23.56-.26,17.68-1.04,35.52-1.37,53.2-.09,4.71.04,9.44.1,14.14l.83.95c10.49,5.92,20.42,12.89,30.91,18.79.72.41,2.32,1.6,3.01,1.42,1.18-.31.23-2.41.21-3.31-.79-29.71-1.4-59.6-3.09-89.2-.12-2.05.15-4.12-.05-6.16l-29.89-14.91ZM265.32,366.14v16.64c3.67,3.34,7.45,6.51,11.54,9.31.36.24.85,1.22,1.33.45-1.14-3.63-3.37-6.73-4.97-10.12-2.31-4.91-4.12-10.19-6.79-14.95-.28-.5-.45-1.22-1.12-1.32Z" style="fill: #f08017;"/>
</svg>